<svg id="Capa_1" enable-background="new 0 0 512.232 512.232" height="512" viewBox="0 0 512.232 512.232" width="512" xmlns="http://www.w3.org/2000/svg"><g><g><g><path d="m194.205 492.946c17.341-31.791-14.101-79.876-14.101-79.876l-79.415-78.111s-48.887-30.926-81.209-13.87c-2.359 1.245-4.511 2.84-6.403 4.702l-2.93 2.882c-3.528 3.47-3.528 9.097 0 12.568l42.078 41.387 79.415 78.111 42.078 41.387c3.528 3.47 9.249 3.47 12.777 0l2.93-2.882c1.892-1.861 3.514-3.978 4.78-6.298z" fill="#8ac9fe"/></g><g><path d="m194.206 492.952c-1.268 2.31-2.888 4.435-4.779 6.294l-2.935 2.876c-3.522 3.476-9.252 3.476-12.774 0l-5.882-5.786c12.446-27.739-13.502-67.443-13.502-67.443l-69.425-68.274s-40.366-25.545-68.568-13.281l-6.199-6.098c-3.522-3.465-3.522-9.1 0-12.565l2.935-2.887c1.89-1.859 4.051-3.453 6.399-4.7 32.323-17.057 81.213 13.87 81.213 13.87l79.417 78.113c-.001 0 31.442 48.088 14.1 79.881z" fill="#60b7ff"/></g><g><path d="m318.395 114.511-234.493-73.378c-4.736-1.482-9.903-.212-13.412 3.297l-15.048 15.048c-5.208 5.208-5.208 13.651 0 18.859l149.563 149.563z" fill="#8ac9fe"/></g><g><path d="m318.392 114.514-18.933 18.933-203.15-63.572c-4.73-1.473-9.894-.21-13.411 3.294l-15.045 15.057c-.421.421-.817.879-1.164 1.35l-11.243-11.244c-5.213-5.201-5.213-13.646 0-18.859l15.045-15.045c3.504-3.504 8.68-4.78 13.411-3.294z" fill="#60b7ff"/></g><g><path d="m397.718 193.835 73.378 234.493c1.482 4.736.212 9.903-3.297 13.412l-15.048 15.048c-5.208 5.208-13.651 5.208-18.859 0l-149.563-149.563z" fill="#8ac9fe"/></g><g><path d="m467.802 441.74-11.504 11.504-79.373-238.615 20.791-20.79 73.38 234.491c1.486 4.73.21 9.906-3.294 13.41z" fill="#60b7ff"/></g><g><path d="m466.857 8.462c-27.687-4.178-55.674 5.376-75.026 25.612l-328.268 344.063c-12.661 13.24-12.428 34.169.526 47.123l22.882 22.882c12.954 12.954 33.883 13.187 47.123.526l344.063-328.268c20.236-19.352 29.79-47.339 25.612-75.025-2.878-19.068-17.845-34.035-36.912-36.913z" fill="#f5f8f9"/></g><g><path d="m478.156 120.404-344.06 328.26c-13.24 12.67-34.17 12.43-47.13-.52l-3.7-3.7c10.53 2.22 21.91-.64 30.25-8.61l344.06-328.27c20.24-19.35 29.79-47.34 25.61-75.02-1.32-8.74-5.18-16.64-10.83-22.88 7.31 2.07 13.82 5.97 19.03 11.18 6.48 6.49 10.94 14.99 12.38 24.53 4.18 27.69-5.37 55.67-25.61 75.03z" fill="#e8edf2"/></g><g><path d="m504.26 67.086c-16.137 4.622-34.248.576-46.969-12.145s-16.767-30.832-12.145-46.969c7.14-.752 14.441-.607 21.711.491 9.527 1.436 18.034 5.904 24.521 12.391s10.955 14.994 12.391 24.521c1.098 7.27 1.244 14.571.491 21.711z" fill="#8ac9fe"/></g><g><path d="m504.256 67.084c-7.52 2.15-15.46 2.43-23.1.81 3.08-11.36 3.84-23.38 2.03-35.35-1.32-8.74-5.18-16.639-10.829-22.879.694.765 2.111.71 3.021.991 3.484 1.075 6.354 2.736 9.358 4.738 2.497 1.664 4.52 3.34 6.639 5.459 5.441 5.441 9.399 12.275 11.39 19.72 1.283 4.795 1.482 9.76 1.855 14.683.223 2.945.108 5.907-.099 8.843-.021.3-.076 2.931-.265 2.985z" fill="#60b7ff"/></g><g><path d="m60.577 451.653c-7.025-7.025-7.025-18.521 0-25.547l53.918-53.918c7.025-7.025 18.521-7.025 25.547 0 7.025 7.025 7.025 18.521 0 25.547l-53.918 53.918c-7.026 7.025-18.521 7.025-25.547 0z" fill="#8d9ca8"/></g><g><path d="m140.044 397.737-53.917 53.917c-7.025 7.025-18.525 7.025-25.55 0-2.326-2.326-3.877-5.136-4.66-8.115 6.019 1.597 12.737.038 17.435-4.66l53.917-53.917c3.516-3.516 5.274-8.146 5.267-12.775 0-1.566-.2-3.132-.606-4.66 2.979.783 5.789 2.334 8.115 4.66 3.516 3.516 5.274 8.146 5.267 12.775.006 4.629-1.752 9.259-5.268 12.775z" fill="#7a8c98"/></g></g><g><path d="m475.565 436.867c-.968 14.942 10.861 27.359 25.585 27.359.213 0 .425-.003.637-.008 1.616-.04 2.944 1.254 2.944 2.87v29.484c0 4.505-3.652 8.157-8.157 8.157h-240.231c-4.505 0-8.157-3.652-8.157-8.157v-29.482c0-1.626 1.344-2.91 2.969-2.871.492.012.988.009 1.489-.008 12.914-.446 23.677-10.691 24.683-23.574 1.179-15.088-10.72-27.701-25.569-27.701-.21 0-.42.003-.628.008-1.616.04-2.944-1.254-2.944-2.87v-29.484c0-4.505 3.652-8.157 8.157-8.157h240.232c4.505 0 8.157 3.652 8.157 8.157v29.48c0 1.633-1.355 2.911-2.988 2.873-.064-.001-.127-.003-.191-.004-13.549-.214-25.111 10.405-25.988 23.928z" fill="#fef0ae"/></g><g><path d="m475.57 436.867c-.971 14.944 10.858 27.36 25.584 27.36.21 0 .42 0 .63-.009 1.619-.044 2.949 1.251 2.949 2.87v29.486c0 4.506-3.649 8.155-8.155 8.155h-18.139c4.506 0 8.567-4.052 8.567-8.558l.131-19.301c0-1.619-1.733-2.502-3.352-2.467-.21.009-.42.026-.639.009-19.599-1.724-26.694-22.296-26.606-37.275.087-16.003 9.493-32.409 27.859-34.351.07 0 .131.009.193.009 1.636.035 2.992-1.243 2.992-2.879v-19.328c0-4.506-3.657-8.155-8.164-8.155h17.158c4.506 0 8.155 3.649 8.155 8.155v29.478c0 1.636-1.356 2.914-2.993 2.879-.061 0-.122-.009-.184-.009-13.553-.209-25.111 10.404-25.986 23.931z" fill="#fee45a"/></g><g><path d="m419.666 63.241c-7.833 0-15.197 3.05-20.735 8.589-2.929 2.929-2.929 7.678 0 10.606 2.929 2.93 7.678 2.929 10.606 0 2.706-2.706 6.302-4.195 10.128-4.195s7.423 1.49 10.128 4.195c5.584 5.584 5.584 14.672 0 20.257-2.929 2.929-2.929 7.678 0 10.606 1.464 1.465 3.384 2.197 5.303 2.197s3.839-.732 5.303-2.197c11.433-11.434 11.433-30.037 0-41.47-5.537-5.537-12.901-8.588-20.733-8.588z"/><path d="m501.439 420.438.13.003c2.793.065 5.549-1.015 7.544-2.965 2.011-1.964 3.118-4.595 3.118-7.406v-29.48c0-8.633-7.024-15.657-15.658-15.657h-37.458l-16.721-53.431c-1.237-3.953-5.446-6.156-9.397-4.918-3.953 1.237-6.155 5.444-4.918 9.397l15.319 48.952h-90.756l-57.708-57.708 35.926-35.925 64.102-61.16 22.905 73.195c1.238 3.954 5.448 6.157 9.397 4.918 3.953-1.237 6.155-5.444 4.918-9.397l-25.117-80.263 76.274-72.773c21.972-21.012 32.381-51.504 27.844-81.565-3.388-22.455-20.752-39.819-43.208-43.208-30.061-4.536-60.553 5.873-81.571 27.851l-72.766 76.267-227.496-71.19c-7.425-2.324-15.455-.349-20.955 5.152l-15.049 15.048c-8.123 8.124-8.123 21.342 0 29.466l145.354 145.354-93.502 98.001c-11.262-6.524-54.49-29.173-86.011-12.539-4.357 2.299-7.637 5.471-11.092 8.87-3.151 3.1-4.887 7.23-4.887 11.63s1.735 8.531 4.887 11.632l9.447 9.291c2.954 2.904 7.702 2.864 10.606-.088 2.904-2.953 2.865-7.702-.088-10.606l-9.446-9.29c-.335-.33-.406-.692-.406-.938 0-.245.07-.607.406-.937 0 0 2.925-2.878 2.93-2.882 9.672-9.514 26.591-8.644 38.907-5.992 11.894 2.562 23.351 7.317 34.04 13.073l-33.14 34.735c-.826.864-1.606 1.755-2.341 2.672l-6.667-6.557c-2.953-2.905-7.701-2.866-10.606.087s-2.866 7.702.087 10.606l9.928 9.765c-3.334 11.241-1.817 23.665 4.516 33.813-7.68 10.015-6.947 24.454 2.215 33.616 4.814 4.814 11.234 7.466 18.077 7.466 5.703 0 11.109-1.848 15.54-5.249 6.655 4.153 14.285 6.246 21.923 6.246 4.336 0 8.672-.679 12.831-2.023l44.813 44.077c3.211 3.159 7.43 4.739 11.648 4.739s8.437-1.58 11.648-4.739c3.436-3.38 6.687-6.63 9.035-10.936 19.018-34.866-12.19-84.15-14.335-87.461l96.782-92.339 48.194 48.194h-75.087c-8.634 0-15.658 7.024-15.658 15.657v29.484c0 2.778 1.14 5.484 3.128 7.423 1.988 1.94 4.715 3.008 7.492 2.944.15-.003.301-.005.452-.005 5.12 0 9.854 2.071 13.332 5.831 3.471 3.753 5.162 8.649 4.76 13.787-.706 9.029-8.377 16.348-17.469 16.662-.352.012-.702.014-1.048.006-2.793-.073-5.533 1.012-7.526 2.957-2.013 1.966-3.121 4.598-3.121 7.413v29.482c0 8.634 7.024 15.658 15.658 15.658h240.231c8.634 0 15.658-7.024 15.658-15.658v-29.484c0-2.779-1.141-5.485-3.129-7.424-1.989-1.94-4.716-3.011-7.489-2.943-.154.003-.309.006-.464.006-5.067 0-9.768-2.038-13.236-5.738-3.467-3.699-5.195-8.542-4.865-13.636.614-9.479 8.839-17.052 18.389-16.916zm-50.183-405.366c.497-.018.994-.03 1.492-.038 2.811-.047 5.627.016 8.428.258 9.39.809 18.134 4.101 24.898 10.865 3.119 3.119 5.827 7.003 7.568 11.038 2.765 6.411 3.535 13.554 3.578 20.477.007 1.079-.004 2.157-.042 3.235-.001.022-.002.044-.003.066-12.574 1.918-25.455-2.209-34.582-11.336-9.122-9.123-13.25-21.997-11.337-34.565zm-390.511 57.962c-2.275-2.275-2.275-5.978 0-8.253l15.049-15.048c1.113-1.113 2.597-1.71 4.119-1.71.584 0 1.173.088 1.75.268l220.428 68.977-61.126 64.067-35.96 35.96zm20.076 373.316c-4.119 4.119-10.821 4.119-14.94 0s-4.119-10.821 0-14.94l53.918-53.918c2.06-2.06 4.765-3.089 7.47-3.089s5.411 1.03 7.47 3.089c4.119 4.119 4.119 10.821 0 14.94zm106.799 43.006c-1.612 2.956-4.023 5.1-6.385 7.424-.612.602-1.646.602-2.259 0l-41.644-40.96c.659-.554 1.308-1.123 1.938-1.726l36.077-34.421c5.745 9.749 25.198 45.987 12.273 69.683zm-58.71-46.109c-7.828 7.485-19.308 9.113-28.743 4.969l45.178-45.178c4.814-4.814 7.466-11.234 7.466-18.076 0-6.843-2.651-13.262-7.466-18.077-9.968-9.968-26.186-9.968-36.153 0l-45.169 45.169c-4.14-9.435-2.522-20.909 4.966-28.74l328.262-344.056c10.623-11.108 24.137-18.674 38.714-22.122-1.148 15.834 4.547 31.633 16.022 43.108 10.51 10.51 24.645 16.19 39.116 16.19 1.333 0 2.668-.051 4.005-.148-3.45 14.57-11.029 28.073-22.129 38.688zm348.06 17.999c5.343 5.701 12.569 9.32 20.262 10.246v25.081c0 .363-.295.658-.658.658h-240.231c-.363 0-.658-.295-.658-.658v-25.078c15.578-1.839 27.879-14.41 29.118-30.272.731-9.354-2.359-18.282-8.702-25.14-5.362-5.797-12.645-9.476-20.416-10.41v-25.082c0-.362.295-.657.658-.657h240.231c.363 0 .658.295.658.657v25.074c-15.661 1.837-28.105 14.588-29.151 30.719-.601 9.274 2.556 18.104 8.889 24.862z"/><path d="m446.366 413.362h-139.815c-4.142 0-7.5 3.358-7.5 7.5s3.358 7.5 7.5 7.5h139.814c4.142 0 7.5-3.358 7.5-7.5s-3.357-7.5-7.499-7.5z"/><path d="m446.366 448.799h-139.815c-4.142 0-7.5 3.358-7.5 7.5s3.358 7.5 7.5 7.5h139.814c4.142 0 7.5-3.358 7.5-7.5s-3.357-7.5-7.499-7.5z"/></g></g></svg>